PathFileType	4	(X/Y/Z)	c:/Users/goper/Files/vsCode/490R/osim_files/C11/C11_Slow_02.trc
DataRate	CameraRate	NumFrames	NumMarkers	Units                	OrigDataRate	OrigDataStartFrame	OrigNumFrames
120.00	120.00	6	36	mm	120.0	330	1316
                Frame#	Time	LPSIS			LASIS			LTH1			LTH2			LTH3			LTH4			LLFE			LMFE			LSH1			LSH2			LSH3			LSH4			LLMAL			LMMAL			LCAL			LMTP5			LTOE			LMTP1			RPSIS			RASIS			RTH1			RTH2			RTH3			RTH4			RLFE			RMFE			RSH1			RSH2			RSH3			RSH4			RLMAL			RMMAL			RCAL			RMTP1			RTOE			RMTP5		
		X1	Y1	Z1	X2	Y2	Z2	X3	Y3	Z3	X4	Y4	Z4	X5	Y5	Z5	X6	Y6	Z6	X7	Y7	Z7	X8	Y8	Z8	X9	Y9	Z9	X10	Y10	Z10	X11	Y11	Z11	X12	Y12	Z12	X13	Y13	Z13	X14	Y14	Z14	X15	Y15	Z15	X16	Y16	Z16	X17	Y17	Z17	X18	Y18	Z18	X19	Y19	Z19	X20	Y20	Z20	X21	Y21	Z21	X22	Y22	Z22	X23	Y23	Z23	X24	Y24	Z24	X25	Y25	Z25	X26	Y26	Z26	X27	Y27	Z27	X28	Y28	Z28	X29	Y29	Z29	X30	Y30	Z30	X31	Y31	Z31	X32	Y32	Z32	X33	Y33	Z33	X34	Y34	Z34	X35	Y35	Z35	X36	Y36	Z36

330	2.74167	3009.35815	999.81360	255.27109	0.00000	0.00000	0.00000	0.00000	0.00000	0.00000	0.00000	0.00000	0.00000	-1196.63196	735.76923	2721.06055	-1206.73999	734.97272	2771.18872	0.00000	0.00000	0.00000	2867.38232	505.21893	101.75532	0.00000	0.00000	0.00000	0.00000	0.00000	0.00000	0.00000	0.00000	0.00000	2826.63062	420.55206	401.76550	0.00000	0.00000	0.00000	0.00000	0.00000	0.00000	0.00000	0.00000	0.00000	2804.30493	71.25612	406.46432	2726.14355	70.30378	357.23715	0.00000	0.00000	0.00000	2997.87964	1014.31793	170.79190	0.00000	0.00000	0.00000	0.00000	0.00000	0.00000	2888.07837	587.42462	79.98851	0.00000	0.00000	0.00000	0.00000	0.00000	0.00000	0.00000	0.00000	0.00000	0.00000	0.00000	0.00000	0.00000	0.00000	0.00000	0.00000	0.00000	0.00000	-1148.85266	737.36261	2785.06567	-1135.20935	734.54181	2742.17358	0.00000	0.00000	0.00000	0.00000	0.00000	0.00000	0.00000	0.00000	0.00000	2816.58984	48.71539	227.82320	0.00000	0.00000	0.00000	0.00000	0.00000	0.00000
331	2.75000	3003.00952	999.71466	255.72028	0.00000	0.00000	0.00000	0.00000	0.00000	0.00000	0.00000	0.00000	0.00000	-1196.51807	735.79535	2721.03149	-1206.63721	735.00983	2771.18213	0.00000	0.00000	0.00000	2865.64917	504.70004	101.46609	0.00000	0.00000	0.00000	0.00000	0.00000	0.00000	0.00000	0.00000	0.00000	2813.46631	416.31882	403.26050	0.00000	0.00000	0.00000	0.00000	0.00000	0.00000	0.00000	0.00000	0.00000	2774.97241	67.79092	408.08807	2696.52954	70.73922	358.41000	0.00000	0.00000	0.00000	2991.76855	1014.24200	171.21741	0.00000	0.00000	0.00000	0.00000	0.00000	0.00000	2885.60107	587.46350	79.57337	0.00000	0.00000	0.00000	0.00000	0.00000	0.00000	0.00000	0.00000	0.00000	0.00000	0.00000	0.00000	0.00000	0.00000	0.00000	0.00000	0.00000	0.00000	-1148.80627	737.35706	2785.09814	-1135.17627	734.51337	2742.18921	0.00000	0.00000	0.00000	0.00000	0.00000	0.00000	0.00000	0.00000	0.00000	2816.18457	48.81074	227.95213	2809.92529	62.82388	176.39192	0.00000	0.00000	0.00000
332	2.75833	2996.61914	999.54047	256.17490	0.00000	0.00000	0.00000	0.00000	0.00000	0.00000	0.00000	0.00000	0.00000	-1196.50171	735.78027	2721.03687	-1206.65710	734.98981	2771.18726	0.00000	0.00000	0.00000	2863.82178	504.11017	101.23602	0.00000	0.00000	0.00000	0.00000	0.00000	0.00000	0.00000	0.00000	0.00000	2800.33911	411.94598	404.60040	0.00000	0.00000	0.00000	0.00000	0.00000	0.00000	0.00000	0.00000	0.00000	2745.33765	64.51336	409.75775	2667.03149	71.62481	359.81348	0.00000	0.00000	0.00000	2985.58569	1014.09070	171.67192	0.00000	0.00000	0.00000	0.00000	0.00000	0.00000	2883.03369	587.46808	79.20763	0.00000	0.00000	0.00000	0.00000	0.00000	0.00000	0.00000	0.00000	0.00000	0.00000	0.00000	0.00000	0.00000	0.00000	0.00000	0.00000	0.00000	0.00000	-1148.82959	737.29486	2785.06543	-1135.10034	734.54968	2742.16333	0.00000	0.00000	0.00000	0.00000	0.00000	0.00000	0.00000	0.00000	0.00000	2815.87329	48.83536	228.05792	2808.21362	62.59061	177.30389	0.00000	0.00000	0.00000
333	2.76667	2990.11597	999.31134	256.66260	0.00000	0.00000	0.00000	0.00000	0.00000	0.00000	0.00000	0.00000	0.00000	-1196.57117	735.74469	2721.05298	-1206.74451	734.94226	2771.21069	0.00000	0.00000	0.00000	2862.16235	503.95477	100.59939	0.00000	0.00000	0.00000	0.00000	0.00000	0.00000	0.00000	0.00000	0.00000	2787.34204	407.39429	405.76685	0.00000	0.00000	0.00000	0.00000	0.00000	0.00000	2864.71387	109.54525	296.80176	2715.69189	62.06445	411.52026	2637.25049	72.88449	360.54987	0.00000	0.00000	0.00000	2979.34229	1013.89282	172.15895	0.00000	0.00000	0.00000	0.00000	0.00000	0.00000	2880.36523	587.43933	78.85162	0.00000	0.00000	0.00000	0.00000	0.00000	0.00000	0.00000	0.00000	0.00000	0.00000	0.00000	0.00000	0.00000	0.00000	0.00000	0.00000	0.00000	0.00000	-1148.89062	737.27411	2785.10889	-1135.17432	734.53497	2742.17871	0.00000	0.00000	0.00000	0.00000	0.00000	0.00000	0.00000	0.00000	0.00000	2814.46411	49.80204	227.51219	2808.19336	62.44917	177.22678	0.00000	0.00000	0.00000
334	2.77500	2983.51831	999.02777	257.16971	0.00000	0.00000	0.00000	0.00000	0.00000	0.00000	0.00000	0.00000	0.00000	-1196.60645	735.73956	2721.02856	-1206.76697	734.90759	2771.21387	0.00000	0.00000	0.00000	2860.31909	503.56244	99.88415	0.00000	0.00000	0.00000	0.00000	0.00000	0.00000	0.00000	0.00000	0.00000	2774.51733	402.79831	406.68237	0.00000	0.00000	0.00000	0.00000	0.00000	0.00000	2837.06641	100.57463	298.94223	2686.02832	60.26963	413.25961	2608.45874	75.33817	362.52563	0.00000	0.00000	0.00000	2973.05884	1013.65942	172.67480	0.00000	0.00000	0.00000	0.00000	0.00000	0.00000	2877.59082	587.43237	78.49313	0.00000	0.00000	0.00000	2827.48535	591.49646	86.29060	0.00000	0.00000	0.00000	2902.22998	493.03314	209.63609	0.00000	0.00000	0.00000	0.00000	0.00000	0.00000	-1148.88879	737.28448	2785.07690	-1135.23938	734.47333	2742.18604	0.00000	0.00000	0.00000	0.00000	0.00000	0.00000	0.00000	0.00000	0.00000	2814.24585	49.69132	227.54457	2808.15234	62.27650	177.05550	0.00000	0.00000	0.00000
335	2.78333	2976.84839	998.69751	257.71115	0.00000	0.00000	0.00000	0.00000	0.00000	0.00000	0.00000	0.00000	0.00000	-1196.63904	735.71649	2721.03564	-1206.76636	734.93628	2771.19800	0.00000	0.00000	0.00000	2858.29419	503.04349	99.49762	0.00000	0.00000	0.00000	0.00000	0.00000	0.00000	0.00000	0.00000	0.00000	2761.78662	398.09372	407.28552	0.00000	0.00000	0.00000	0.00000	0.00000	0.00000	2809.14502	92.33476	301.09738	2656.38306	59.29653	414.74088	2578.90015	77.68416	362.92859	0.00000	0.00000	0.00000	2966.67944	1013.35046	173.27121	0.00000	0.00000	0.00000	0.00000	0.00000	0.00000	2874.74634	587.45172	78.12421	0.00000	0.00000	0.00000	2822.01392	587.39771	90.07329	0.00000	0.00000	0.00000	2900.25415	492.90045	209.24818	0.00000	0.00000	0.00000	0.00000	0.00000	0.00000	-1148.88879	737.27802	2785.07275	-1135.24353	734.49097	2742.18262	0.00000	0.00000	0.00000	0.00000	0.00000	0.00000	0.00000	0.00000	0.00000	2814.20288	49.57972	227.46600	2808.03760	62.04037	176.85141	2834.99878	40.86642	112.24632
